<svg width="194" height="135" viewBox="0 0 194 135" fill="none" xmlns="http://www.w3.org/2000/svg">
<path d="M193.375 49.965C188.44 35.9533 181.822 16.5429 173.363 4.60531C133.008 22.4268 92.9072 40.4929 53.3675 60.1297C38.3635 67.5812 23.3467 78.0685 7.45963 83.425C13.6392 95.1178 19.2654 107.051 25.3411 118.771C27.8293 123.57 32.0285 127.975 33.8008 133.107C78.3431 111.775 121.163 86.6816 166.577 67.1258C175.282 63.3776 183.337 58.0099 192.39 55.0092C168.888 63.7136 146.557 76.2317 124.038 87.158C108.982 94.463 92.7595 99.2917 77.613 106.542C63.2911 113.398 50.2784 123.002 35.8598 129.545C24.3224 113.971 11.5921 98.5829 1.19078 82.2047C10.2346 77.7234 18.7611 72.1706 27.8442 67.8131C76.1949 44.6171 124.986 22.5216 174.386 1.7139C181.545 17.1719 184.924 33.7506 191.155 49.4526C182.409 34.1966 178.188 16.788 169.85 1.40069C163.232 2.82456 156.698 7.01496 150.57 9.76713C134.423 17.0191 118.417 24.1435 102.627 32.156C82.7673 42.2332 63.1501 52.5737 43.4298 62.9395C29.9131 70.0442 13.9806 76.1346 1.93389 85.7841C11.2321 101.921 20.7964 117.939 30.278 133.952" stroke="white" stroke-miterlimit="1.5" stroke-linecap="round" stroke-linejoin="round"/>
</svg>
