<svg width="150" height="150" viewBox="0 0 150 150" fill="none" xmlns="http://www.w3.org/2000/svg">
<g filter="url(#filter0_b_404_698)">
<circle cx="75" cy="75" r="75" fill="white" fill-opacity="0.5"/>
</g>
<path d="M56.9144 115.416C57.6554 115.763 58.2219 116.257 58.6139 116.897C59.0041 117.541 59.1986 118.281 59.1972 119.118C59.1941 119.959 58.972 120.85 58.5311 121.792C58.0938 122.725 57.5541 123.461 56.9122 123.998C56.2702 124.535 55.576 124.857 54.8295 124.964C54.0831 125.071 53.3355 124.949 52.5868 124.598C52.0079 124.327 51.5958 124.016 51.3504 123.666C51.0993 123.318 50.9419 122.981 50.8783 122.655C50.8089 122.33 50.7602 122.068 50.7322 121.866L50.6164 121.812L48.5671 126.188L47.201 125.549L52.7523 113.693L54.0722 114.311L53.4325 115.677L53.5946 115.753C53.7708 115.638 54.0094 115.501 54.3103 115.34C54.6094 115.184 54.9758 115.09 55.4096 115.057C55.8417 115.029 56.3433 115.149 56.9144 115.416ZM56.1545 116.557C55.6065 116.3 55.0765 116.226 54.5646 116.335C54.0509 116.447 53.5763 116.712 53.141 117.129C52.7038 117.55 52.328 118.096 52.0136 118.768C51.7028 119.432 51.5273 120.058 51.4871 120.646C51.4452 121.238 51.5482 121.761 51.7963 122.216C52.0426 122.675 52.4436 123.035 52.9994 123.295C53.5782 123.566 54.1302 123.643 54.6553 123.527C55.1747 123.412 55.6492 123.148 56.0789 122.732C56.503 122.319 56.8613 121.8 57.1541 121.175C57.4504 120.542 57.6232 119.922 57.6724 119.314C57.7159 118.709 57.618 118.164 57.3787 117.681C57.1338 117.199 56.7257 116.824 56.1545 116.557Z" fill="black"/>
<path d="M47.0703 108.962C47.5364 109.374 47.8819 109.836 48.1066 110.347C48.3285 110.862 48.403 111.386 48.3301 111.918C48.2545 112.454 48.005 112.962 47.5816 113.441C47.2091 113.862 46.8241 114.131 46.4266 114.246C46.0263 114.364 45.621 114.375 45.2106 114.28C44.8001 114.184 44.3949 114.025 43.9947 113.802C43.5885 113.58 43.1949 113.34 42.8137 113.082C42.316 112.745 41.9155 112.467 41.6123 112.251C41.3031 112.034 41.0522 111.906 40.8596 111.867C40.6638 111.825 40.4854 111.894 40.3246 112.076L40.2907 112.115C39.873 112.587 39.6777 113.069 39.7049 113.559C39.7289 114.047 40.0011 114.521 40.5215 114.981C41.0611 115.458 41.5886 115.713 42.1039 115.748C42.6193 115.783 43.0578 115.721 43.4193 115.563L44.1534 116.894C43.5667 117.172 43.0037 117.294 42.4643 117.261C41.9188 117.228 41.4124 117.093 40.945 116.856C40.4715 116.62 40.0496 116.338 39.6793 116.011C39.443 115.802 39.197 115.533 38.9413 115.205C38.6796 114.877 38.4813 114.499 38.3463 114.073C38.2082 113.644 38.1972 113.17 38.3132 112.653C38.4293 112.136 38.7456 111.585 39.2621 111.001L43.5463 106.154L44.6766 107.153L43.796 108.149L43.8535 108.2C44.0712 108.108 44.3499 108.05 44.6896 108.026C45.0293 108.002 45.404 108.058 45.8138 108.193C46.2236 108.327 46.6425 108.584 47.0703 108.962ZM46.0004 109.825C45.5534 109.43 45.099 109.185 44.6373 109.089C44.1724 108.991 43.7389 109.012 43.3369 109.151C42.9318 109.288 42.5937 109.509 42.3228 109.816L41.4083 110.85C41.507 110.835 41.659 110.876 41.8641 110.972C42.0633 111.068 42.2837 111.192 42.5255 111.343C42.7612 111.495 42.9894 111.645 43.2099 111.795C43.4244 111.944 43.5994 112.065 43.7348 112.156C44.0624 112.378 44.3921 112.558 44.7237 112.698C45.0493 112.838 45.3651 112.892 45.6711 112.861C45.9712 112.831 46.2482 112.672 46.5022 112.384C46.8493 111.992 46.9665 111.566 46.8538 111.108C46.735 110.651 46.4506 110.223 46.0004 109.825Z" fill="black"/>
<path d="M29.1064 108.732L39.7487 101.109L40.6271 102.335L29.9849 109.959L29.1064 108.732Z" fill="black"/>
<path d="M36.7356 96.0066L27.8875 100.262L27.2337 98.9026L36.0817 94.6471L36.7356 96.0066ZM26.0804 100.28C26.2078 100.545 26.2275 100.817 26.1393 101.096C26.0493 101.371 25.8776 101.569 25.6241 101.691C25.3707 101.813 25.1085 101.823 24.8375 101.722C24.5646 101.617 24.3645 101.432 24.237 101.167C24.1096 100.902 24.0909 100.632 24.1809 100.357C24.269 100.078 24.4398 99.8774 24.6933 99.7555C24.9467 99.6336 25.2099 99.6253 25.4827 99.7305C25.7537 99.8319 25.9529 100.015 26.0804 100.28Z" fill="black"/>
<path d="M33.2786 85.4513C33.4746 86.3157 33.4409 87.1208 33.1774 87.8665C32.913 88.6081 32.4524 89.2457 31.7956 89.7791C31.1378 90.3084 30.3144 90.6852 29.3253 90.9095C28.3279 91.1357 27.4162 91.1523 26.5904 90.9594C25.7635 90.7624 25.0709 90.3864 24.5125 89.8313C23.9531 89.2722 23.5754 88.5604 23.3794 87.6959C23.1834 86.8315 23.2176 86.0285 23.482 85.2869C23.7455 84.5411 24.2082 83.9031 24.8701 83.3729C25.5311 82.8385 26.3602 82.4582 27.3577 82.2321C28.3467 82.0078 29.2526 81.9946 30.0753 82.1926C30.897 82.3864 31.5876 82.7629 32.147 83.3221C32.7054 83.8771 33.0826 84.5868 33.2786 85.4513ZM31.9571 85.7509C31.8082 85.0943 31.5174 84.5922 31.0846 84.2446C30.6519 83.8971 30.1381 83.6837 29.5434 83.6044C28.9486 83.5252 28.3312 83.5581 27.6912 83.7032C27.0512 83.8483 26.478 84.0854 25.9714 84.4144C25.4649 84.7433 25.0892 85.1584 24.8446 85.6596C24.5999 86.1607 24.552 86.7396 24.7009 87.3963C24.8498 88.0529 25.1427 88.5545 25.5796 88.9011C26.0165 89.2478 26.5344 89.4602 27.1333 89.5385C27.7322 89.6168 28.3517 89.5834 28.9917 89.4383C29.6317 89.2932 30.2029 89.0566 30.7053 88.7286C31.2077 88.4006 31.5791 87.9864 31.8197 87.4862C32.0602 86.986 32.106 86.4075 31.9571 85.7509Z" fill="black"/>
<path d="M27.7488 65.6624L25.032 64.9281L25.965 67.585L24.7803 67.9405L24.0754 65.2052L22.2396 67.352L21.332 66.5118L23.3382 64.5358L20.5751 64.0007L20.8521 62.8051L23.569 63.5394L22.636 60.8825L23.8206 60.527L24.5255 63.2623L26.3613 61.1155L27.269 61.9557L25.2627 63.9318L28.0258 64.4668L27.7488 65.6624Z" fill="#FFC93E"/>
<path d="M42.2939 49.1109L39.7051 52.2122L29.6554 43.8232L32.3588 40.5845C33.1726 39.6097 34.0701 38.9434 35.0514 38.5857C36.0295 38.2254 37.0474 38.173 38.1051 38.4287C39.1596 38.6816 40.2069 39.2423 41.2472 40.1107C42.2941 40.9846 43.0397 41.9234 43.4841 42.9271C43.9252 43.9281 44.0509 44.9545 43.8613 46.0063C43.6683 47.0554 43.1459 48.0902 42.2939 49.1109ZM39.6414 50.0941L41.1488 48.2883C41.8424 47.4573 42.2569 46.6349 42.3924 45.8209C42.5278 45.007 42.4114 44.2188 42.0432 43.4562C41.675 42.6937 41.082 41.9711 40.2642 41.2884C39.4529 40.6112 38.6438 40.1606 37.837 39.9368C37.027 39.7103 36.2451 39.7293 35.4914 39.9938C34.7344 40.2556 34.0282 40.7791 33.3728 41.5642L31.7508 43.5074L39.6414 50.0941Z" fill="black"/>
<path d="M49.1664 42.5761L43.3615 34.6577L44.5782 33.7658L50.383 41.6842L49.1664 42.5761ZM43.0127 32.8845C42.7755 33.0583 42.5118 33.1275 42.2216 33.0919C41.9348 33.0538 41.7082 32.9214 41.5419 32.6946C41.3757 32.4677 41.3175 32.2118 41.3675 31.9269C41.4209 31.6394 41.5662 31.4087 41.8033 31.2348C42.0405 31.061 42.3025 30.9931 42.5893 31.0312C42.8795 31.0667 43.1078 31.1979 43.2741 31.4248C43.4404 31.6516 43.4968 31.9088 43.4434 32.1963C43.3934 32.4812 43.2498 32.7107 43.0127 32.8845Z" fill="black"/>
<path d="M60.3445 40.6341C59.6754 40.9228 59.0631 41.0848 58.5075 41.1203C57.9537 41.1597 57.4564 41.1097 57.0157 40.9703C56.5806 40.8331 56.2016 40.6485 55.8788 40.4165L56.648 39.1658C56.8441 39.2761 57.0836 39.3955 57.3664 39.5241C57.651 39.6566 57.9933 39.7294 58.3935 39.7424C58.7992 39.7577 59.274 39.648 59.8178 39.4133C60.5456 39.0994 61.0703 38.6642 61.3918 38.1078C61.7133 37.5514 61.712 36.8976 61.3879 36.1463L60.598 34.3151L60.4806 34.3658C60.4497 34.574 60.3927 34.8399 60.3096 35.1635C60.2286 35.4816 60.0546 35.8096 59.7874 36.1476C59.5224 36.4801 59.0964 36.7729 58.5095 37.0261C57.7817 37.3401 57.054 37.4498 56.3264 37.3553C55.6027 37.2591 54.9308 36.9549 54.3107 36.4427C53.6945 35.9289 53.1839 35.2024 52.7787 34.2633C52.3804 33.3399 52.1959 32.4658 52.2252 31.6409C52.2529 30.8122 52.4753 30.0851 52.8923 29.4596C53.3077 28.8303 53.8949 28.3519 54.654 28.0244C55.2409 27.7712 55.7487 27.6681 56.1774 27.7152C56.6084 27.7567 56.969 27.8611 57.2592 28.0282C57.5517 28.1898 57.7826 28.3269 57.9518 28.4395L58.0927 28.3787L57.4749 26.9467L58.813 26.3694L62.8136 35.6427C63.1478 36.4174 63.2435 37.1233 63.1007 37.7604C62.9634 38.3998 62.6483 38.9603 62.1554 39.4422C61.6681 39.9262 61.0644 40.3235 60.3445 40.6341ZM58.1605 35.7008C58.7161 35.4611 59.1308 35.1314 59.4046 34.7116C59.6783 34.2919 59.812 33.8003 59.8056 33.2368C59.7992 32.6734 59.6525 32.0591 59.3656 31.3939C59.0854 30.7444 58.7402 30.2134 58.3302 29.8008C57.9202 29.3883 57.4627 29.1239 56.9577 29.0076C56.4527 28.8913 55.9185 28.9547 55.3551 29.1978C54.7682 29.451 54.3432 29.8106 54.0802 30.2768C53.8211 30.7413 53.7018 31.2662 53.7222 31.8514C53.7466 32.4349 53.8904 33.0319 54.1537 33.6423C54.4238 34.2684 54.7605 34.7798 55.1637 35.1767C55.5692 35.568 56.0247 35.817 56.5303 35.9238C57.038 36.025 57.5814 35.9506 58.1605 35.7008Z" fill="black"/>
<path d="M66.6488 34.6922L64.8719 25.0361L66.3555 24.7631L68.1324 34.4192L66.6488 34.6922ZM65.3302 23.2879C65.041 23.3412 64.7735 23.2886 64.5277 23.1301C64.2861 22.971 64.1398 22.7531 64.0889 22.4765C64.038 22.1998 64.0971 21.9442 64.2663 21.7094C64.4396 21.4739 64.6708 21.3295 64.96 21.2763C65.2492 21.2231 65.5145 21.276 65.7562 21.4352C66.0019 21.5936 66.1503 21.8112 66.2012 22.0878C66.2521 22.3644 66.1909 22.6204 66.0176 22.856C65.8485 23.0907 65.6193 23.2347 65.3302 23.2879Z" fill="black"/>
<path d="M78.2974 24.0638L78.2863 25.3422L73.1984 25.2981L73.2095 24.0198L78.2974 24.0638ZM74.7128 21.6804L76.2212 21.6935L76.1401 31.0511C76.1364 31.4772 76.1955 31.7973 76.3172 32.0115C76.4432 32.2214 76.6039 32.3634 76.7993 32.4375C76.999 32.5075 77.2096 32.5434 77.4312 32.5453C77.5974 32.5467 77.7338 32.5394 77.8405 32.5233C77.9472 32.5029 78.0326 32.4866 78.0966 32.4744L78.3917 33.8321C78.2891 33.8695 78.146 33.9067 77.9624 33.9434C77.7788 33.9844 77.5464 34.0037 77.2652 34.0013C76.8391 33.9976 76.4223 33.9024 76.0148 33.7156C75.6115 33.5289 75.2773 33.2468 75.0121 32.8695C74.7512 32.4922 74.6232 32.0181 74.6281 31.4471L74.7128 21.6804Z" fill="black"/>
<path d="M85.4176 35.3493C84.815 35.1946 84.2973 34.9407 83.8644 34.5876C83.4325 34.2304 83.1278 33.798 82.9501 33.2904C82.7735 32.7787 82.7647 32.2133 82.9236 31.5942C83.0635 31.0493 83.2842 30.6352 83.5857 30.3519C83.8883 30.0644 84.2441 29.8698 84.653 29.768C85.0619 29.6662 85.4952 29.6234 85.9529 29.6398C86.4159 29.653 86.8756 29.6874 87.3321 29.743C87.929 29.8171 88.4118 29.8817 88.7804 29.9367C89.1542 29.9887 89.4359 29.9884 89.6253 29.9358C89.8189 29.8843 89.9459 29.741 90.0063 29.5057L90.0191 29.4562C90.1759 28.8453 90.1306 28.3277 89.8832 27.9034C89.6398 27.4802 89.1818 27.1822 88.509 27.0095C87.8115 26.8304 87.2254 26.8427 86.7507 27.0464C86.2761 27.2502 85.9137 27.5047 85.6637 27.8101L84.4041 26.9587C84.8001 26.4445 85.2458 26.0793 85.7412 25.8634C86.2418 25.6443 86.7541 25.5339 87.2781 25.532C87.8073 25.5271 88.3113 25.5861 88.7901 25.709C89.0955 25.7874 89.4368 25.9146 89.814 26.0907C90.1964 26.2636 90.5447 26.5092 90.8589 26.8275C91.1773 27.1468 91.4026 27.5632 91.5347 28.0767C91.6669 28.5901 91.636 29.2245 91.4421 29.9799L89.8335 36.2454L88.3724 35.8703L88.703 34.5825L88.6287 34.5635C88.4766 34.7444 88.2548 34.9228 87.9633 35.0988C87.6718 35.2747 87.3129 35.3959 86.8866 35.4625C86.4604 35.529 85.9707 35.4913 85.4176 35.3493ZM85.9775 34.094C86.5553 34.2424 87.0715 34.2539 87.526 34.1286C87.9847 34.0044 88.3612 33.7887 88.6557 33.4815C88.9542 33.1754 89.1544 32.8242 89.2561 32.428L89.5994 31.0907C89.5185 31.1491 89.3648 31.1822 89.1384 31.1901C88.9172 31.1949 88.6645 31.185 88.3804 31.1605C88.1016 31.1329 87.8299 31.1027 87.5655 31.0701C87.3063 31.0343 87.0957 31.0066 86.9335 30.987C86.5411 30.939 86.1655 30.9284 85.8066 30.9551C85.453 30.9787 85.147 31.0739 84.8886 31.2407C84.6354 31.4045 84.4611 31.6721 84.3657 32.0436C84.2354 32.5513 84.3246 32.9833 84.6335 33.3398C84.9475 33.6932 85.3955 33.9446 85.9775 34.094Z" fill="black"/>
<path d="M101.517 27.3768L95.5112 39.0088L94.1708 38.3168L100.176 26.6847L101.517 27.3768Z" fill="black"/>
<path d="M112.537 45.7053L114.762 43.9815L112.08 43.1228L112.511 41.9635L115.118 43.0515L114.513 40.2923L115.731 40.0752L116.096 42.8674L118.19 40.9865L118.976 41.9287L116.752 43.6525L119.434 44.5112L119.002 45.6705L116.396 44.5825L117 47.3417L115.783 47.5588L115.417 44.7666L113.323 46.6475L112.537 45.7053Z" fill="#FFC93E"/>
<path d="M116.442 66.1164C116.291 65.5128 116.268 64.9366 116.373 64.3878C116.481 63.838 116.716 63.3641 117.078 62.9662C117.444 62.5673 117.937 62.2903 118.557 62.1353C119.103 61.9988 119.572 61.9958 119.965 62.126C120.362 62.2552 120.702 62.4753 120.986 62.7864C121.27 63.0975 121.514 63.4582 121.718 63.8686C121.927 64.282 122.115 64.7026 122.284 65.1305C122.503 65.6907 122.676 66.146 122.803 66.4963C122.935 66.8498 123.07 67.0973 123.206 67.2389C123.344 67.3847 123.53 67.4281 123.766 67.3692L123.815 67.3568C124.427 67.2038 124.861 66.9175 125.116 66.4979C125.373 66.0825 125.416 65.5378 125.248 64.8639C125.073 64.1652 124.783 63.6557 124.378 63.3353C123.973 63.0149 123.577 62.8175 123.189 62.7431L123.338 61.23C123.979 61.3333 124.512 61.5514 124.938 61.8842C125.369 62.2201 125.71 62.6181 125.961 63.078C126.217 63.541 126.406 64.0123 126.525 64.4919C126.602 64.7978 126.653 65.1585 126.677 65.574C126.707 65.9926 126.657 66.4158 126.527 66.8437C126.398 67.2757 126.139 67.672 125.75 68.0327C125.362 68.3934 124.789 68.6683 124.032 68.8575L117.757 70.4262L117.391 68.9628L118.681 68.6403L118.662 68.5659C118.431 68.5184 118.168 68.4083 117.875 68.2357C117.581 68.0631 117.304 67.8052 117.042 67.4621C116.781 67.1189 116.581 66.6704 116.442 66.1164ZM117.813 66.011C117.957 66.5898 118.193 67.0492 118.52 67.3892C118.847 67.7334 119.216 67.9618 119.627 68.0745C120.038 68.1913 120.442 68.2001 120.839 68.1009L122.178 67.766C122.088 67.7226 121.986 67.6032 121.871 67.4079C121.762 67.2157 121.65 66.9888 121.537 66.7273C121.428 66.4689 121.325 66.2157 121.228 65.9677C121.136 65.7227 121.06 65.5243 121 65.3723C120.855 65.0044 120.686 64.669 120.492 64.3662C120.303 64.0665 120.073 63.8427 119.803 63.6949C119.539 63.5502 119.22 63.5243 118.848 63.6174C118.34 63.7445 118.002 64.0287 117.836 64.47C117.675 64.9144 117.667 65.4281 117.813 66.011Z" fill="black"/>
<path d="M114.091 78.7946C114.115 78.0663 114.229 77.4432 114.433 76.9254C114.633 76.4074 114.89 75.9787 115.204 75.6393C115.513 75.3039 115.842 75.0395 116.189 74.8461L116.993 76.0745C116.81 76.205 116.6 76.3709 116.363 76.5721C116.122 76.7732 115.911 77.0521 115.729 77.4086C115.542 77.7692 115.439 78.2455 115.42 78.8376C115.395 79.6298 115.565 80.2897 115.932 80.8175C116.298 81.3453 116.891 81.6224 117.708 81.6488L119.702 81.7133L119.706 81.5855C119.53 81.469 119.314 81.3042 119.057 81.0913C118.803 80.8827 118.581 80.5855 118.388 80.1999C118.2 79.8186 118.117 79.3085 118.137 78.6696C118.163 77.8774 118.373 77.1722 118.768 76.554C119.164 75.94 119.725 75.4615 120.452 75.1183C121.179 74.7795 122.054 74.6266 123.076 74.6596C124.081 74.6922 124.951 74.8972 125.685 75.2748C126.423 75.6526 126.986 76.1633 127.375 76.8068C127.768 77.4506 127.951 78.1856 127.924 79.0118C127.903 79.6507 127.78 80.1541 127.555 80.522C127.334 80.8943 127.086 81.1762 126.812 81.3677C126.541 81.5636 126.319 81.7142 126.145 81.8194L126.14 81.9727L127.699 82.0232L127.651 83.4798L117.557 83.1532C116.714 83.126 116.034 82.9121 115.519 82.5117C114.999 82.1154 114.625 81.5917 114.399 80.9406C114.169 80.2936 114.066 79.5783 114.091 78.7946ZM119.485 78.9179C119.465 79.5227 119.587 80.0383 119.851 80.4646C120.114 80.891 120.502 81.2212 121.015 81.4552C121.527 81.6892 122.146 81.8179 122.87 81.8414C123.577 81.8642 124.204 81.7779 124.752 81.5825C125.3 81.387 125.734 81.0856 126.054 80.6781C126.374 80.2706 126.544 79.7602 126.564 79.1469C126.584 78.508 126.44 77.9704 126.13 77.534C125.82 77.1019 125.396 76.7705 124.857 76.5399C124.319 76.3136 123.718 76.1897 123.053 76.1682C122.372 76.1461 121.766 76.2331 121.235 76.4291C120.708 76.6295 120.289 76.9358 119.977 77.3478C119.669 77.7642 119.505 78.2875 119.485 78.9179Z" fill="black"/>
<path d="M115.509 90.6578C115.797 89.7568 116.244 89.0431 116.851 88.5169C117.461 87.9961 118.181 87.674 119.013 87.5508C119.847 87.4328 120.743 87.5271 121.701 87.8336C122.658 88.14 123.447 88.5846 124.066 89.1674C124.687 89.7555 125.103 90.4297 125.311 91.19C125.523 91.9556 125.493 92.7605 125.223 93.6047C125.067 94.0917 124.832 94.5467 124.518 94.9697C124.204 95.3926 123.802 95.7404 123.312 96.0132C122.826 96.2873 122.248 96.4445 121.577 96.485C120.906 96.5255 120.135 96.4061 119.262 96.1269L118.653 95.9322L120.959 88.7239L122.201 89.1212L120.363 94.8684C120.89 95.0372 121.395 95.0823 121.876 95.0037C122.357 94.9291 122.778 94.7374 123.141 94.4284C123.502 94.1235 123.766 93.7113 123.933 93.1918C124.116 92.6195 124.132 92.0789 123.982 91.5699C123.834 91.0664 123.571 90.6309 123.192 90.2635C122.812 89.8962 122.365 89.63 121.85 89.4651L121.022 89.2002C120.316 88.9743 119.678 88.9045 119.109 88.9909C118.543 89.0827 118.062 89.3068 117.666 89.6634C117.274 90.0212 116.985 90.4903 116.799 91.0707C116.679 91.4482 116.622 91.806 116.63 92.1441C116.641 92.4877 116.719 92.8055 116.862 93.0975C117.01 93.3909 117.227 93.6503 117.512 93.876L116.679 95.1394C116.255 94.8427 115.919 94.4647 115.672 94.0054C115.43 93.5475 115.29 93.033 115.254 92.462C115.221 91.8924 115.306 91.2909 115.509 90.6578Z" fill="black"/>
<path d="M116.696 102.4L111.779 99.1295L112.614 97.8735L120.789 103.311L119.982 104.524L118.705 103.675L118.634 103.781C118.921 104.249 119.061 104.762 119.054 105.32C119.05 105.88 118.842 106.469 118.432 107.086C118.063 107.64 117.628 108.048 117.125 108.312C116.625 108.579 116.07 108.675 115.458 108.601C114.851 108.53 114.199 108.263 113.504 107.8L108.309 104.345L109.145 103.089L114.254 106.488C114.896 106.915 115.508 107.081 116.088 106.986C116.672 106.893 117.157 106.556 117.544 105.974C117.811 105.573 117.962 105.156 117.998 104.725C118.032 104.297 117.942 103.882 117.729 103.479C117.516 103.076 117.172 102.717 116.696 102.4Z" fill="black"/>
<path d="M102.238 109.769C102.938 109.172 103.682 108.822 104.47 108.721C105.258 108.62 106.036 108.744 106.803 109.092C107.57 109.439 108.272 109.986 108.909 110.731C109.556 111.49 109.988 112.278 110.204 113.096C110.42 113.92 110.417 114.711 110.194 115.467C109.971 116.229 109.522 116.898 108.848 117.473C108.323 117.921 107.766 118.228 107.179 118.393C106.592 118.558 106.014 118.581 105.446 118.46C104.878 118.34 104.363 118.074 103.9 117.663L105.047 116.683C105.425 116.949 105.877 117.084 106.402 117.09C106.927 117.101 107.443 116.891 107.948 116.459C108.396 116.077 108.688 115.626 108.826 115.105C108.964 114.59 108.946 114.041 108.775 113.459C108.603 112.884 108.276 112.314 107.794 111.75C107.302 111.173 106.782 110.748 106.236 110.475C105.686 110.205 105.143 110.094 104.607 110.142C104.068 110.193 103.572 110.413 103.118 110.8C102.82 111.054 102.593 111.337 102.439 111.649C102.284 111.96 102.206 112.285 102.203 112.623C102.201 112.961 102.28 113.297 102.441 113.63L101.294 114.609C100.982 114.113 100.804 113.579 100.758 113.007C100.712 112.442 100.81 111.877 101.051 111.312C101.291 110.754 101.687 110.24 102.238 109.769Z" fill="black"/>
<path d="M93.4643 111.519C93.6968 111.412 93.9129 111.337 94.1128 111.292C94.3109 111.244 94.4527 111.221 94.5385 111.224L94.7431 112.593C94.3708 112.66 94.0622 112.764 93.8171 112.904C93.572 113.044 93.3976 113.262 93.294 113.558C93.1848 113.852 93.1506 114.263 93.1915 114.793L93.255 115.608L100.664 123.07L99.1759 123.751L93.4553 117.765L93.3623 117.808L94.1543 126.05L92.6664 126.731L91.7736 114.767C91.7331 114.228 91.7696 113.75 91.8831 113.332C91.9948 112.911 92.1836 112.55 92.4494 112.25C92.7114 111.952 93.0497 111.709 93.4643 111.519Z" fill="black"/>
<path d="M67.5 85C67.2789 85 67.067 84.9122 66.9107 84.7559C66.7544 84.5996 66.6666 84.3877 66.6666 84.1666V65.8333C66.6667 65.6885 66.7044 65.5462 66.7762 65.4204C66.848 65.2947 66.9513 65.1898 67.0759 65.1161C67.2006 65.0424 67.3423 65.0025 67.4871 65.0002C67.6319 64.998 67.7747 65.0335 67.9016 65.1033L84.5683 74.27C84.6989 74.3419 84.8079 74.4476 84.8838 74.576C84.9597 74.7044 84.9997 74.8508 84.9997 75C84.9997 75.1491 84.9597 75.2955 84.8838 75.424C84.8079 75.5524 84.6989 75.658 84.5683 75.73L67.9016 84.8966C67.7786 84.9644 67.6404 84.9999 67.5 85Z" fill="#FFC93E"/>
<defs>
<filter id="filter0_b_404_698" x="-50" y="-50" width="250" height="250" filterUnits="userSpaceOnUse" color-interpolation-filters="sRGB">
<feFlood flood-opacity="0" result="BackgroundImageFix"/>
<feGaussianBlur in="BackgroundImageFix" stdDeviation="25"/>
<feComposite in2="SourceAlpha" operator="in" result="effect1_backgroundBlur_404_698"/>
<feBlend mode="normal" in="SourceGraphic" in2="effect1_backgroundBlur_404_698" result="shape"/>
</filter>
</defs>
</svg>
