<svg width="11" height="104" viewBox="0 0 11 104" fill="none" xmlns="http://www.w3.org/2000/svg">
<path fill-rule="evenodd" clip-rule="evenodd" d="M9.42194 103.22C9.78294 103.574 10.3682 103.574 10.7292 103.22C11.0903 102.867 11.0903 102.293 10.7292 101.94L1.57806 92.9735C1.21706 92.6198 0.631757 92.6198 0.270753 92.9735C-0.0902516 93.3272 -0.0902513 93.9006 0.270753 94.2543L9.42194 103.22ZM9.42193 92.9735C9.78294 93.3272 10.3682 93.3272 10.7292 92.9735C11.0903 92.6198 11.0903 92.0463 10.7292 91.6926L1.57806 82.7265C1.21706 82.3728 0.631756 82.3728 0.270752 82.7265C-0.090252 83.0802 -0.0902517 83.6537 0.270752 84.0074L9.42193 92.9735ZM10.7292 82.7266C10.3682 83.0803 9.78294 83.0803 9.42193 82.7266L0.270752 73.7605C-0.0902522 73.4068 -0.0902525 72.8333 0.270752 72.4796C0.631756 72.1259 1.21706 72.1259 1.57806 72.4796L10.7292 81.4457C11.0903 81.7994 11.0903 82.3729 10.7292 82.7266ZM9.42193 72.4796C9.78294 72.8333 10.3682 72.8333 10.7292 72.4796C11.0902 72.1259 11.0902 71.5524 10.7292 71.1987L1.57806 62.2326C1.21706 61.8789 0.631755 61.8789 0.270751 62.2326C-0.0902529 62.5863 -0.0902526 63.1598 0.270751 63.5135L9.42193 72.4796ZM10.7292 62.2327C10.3682 62.5864 9.78294 62.5864 9.42193 62.2327L0.270751 53.2666C-0.0902531 52.9129 -0.0902534 52.3394 0.270751 51.9857C0.631755 51.632 1.21706 51.632 1.57806 51.9857L10.7292 60.9518C11.0902 61.3055 11.0902 61.879 10.7292 62.2327ZM9.42193 51.9857C9.78294 52.3394 10.3682 52.3394 10.7292 51.9857C11.0902 51.632 11.0902 51.0586 10.7292 50.7049L1.57806 41.7388C1.21706 41.3851 0.631754 41.3851 0.27075 41.7388C-0.0902538 42.0925 -0.0902535 42.6659 0.27075 43.0196L9.42193 51.9857ZM10.7292 41.7388C10.3682 42.0925 9.78294 42.0925 9.42193 41.7388L0.27075 32.7727C-0.0902539 32.419 -0.0902543 31.8455 0.27075 31.4918C0.631754 31.1381 1.21706 31.1381 1.57806 31.4918L10.7292 40.4579C11.0902 40.8116 11.0902 41.3851 10.7292 41.7388ZM9.42193 31.4919C9.78294 31.8456 10.3682 31.8456 10.7292 31.4919C11.0902 31.1382 11.0902 30.5647 10.7292 30.211L1.57806 21.2449C1.21706 20.8912 0.631754 20.8912 0.270749 21.2449C-0.0902547 21.5986 -0.0902544 22.1721 0.270749 22.5258L9.42193 31.4919ZM10.7292 21.2449C10.3682 21.5986 9.78294 21.5986 9.42193 21.2449L0.270749 12.2788C-0.0902548 11.9251 -0.0902552 11.3516 0.270749 10.9979C0.631753 10.6442 1.21706 10.6442 1.57806 10.9979L10.7292 19.964C11.0902 20.3177 11.0902 20.8912 10.7292 21.2449ZM9.42193 10.998C9.78293 11.3517 10.3682 11.3517 10.7292 10.998C11.0902 10.6443 11.0902 10.0708 10.7292 9.71711L1.57806 0.750999C1.21706 0.397293 0.631753 0.397293 0.270748 0.750999C-0.0902556 1.10471 -0.0902553 1.67818 0.270749 2.03188L9.42193 10.998Z" fill="white"/>
</svg>
